<?xml version="1.0" encoding="UTF-8" standalone="no"?>
<!-- Created with Inkscape (http://www.inkscape.org/) -->

<svg
   xmlns:dc="http://purl.org/dc/elements/1.1/"
   xmlns:cc="http://creativecommons.org/ns#"
   xmlns:rdf="http://www.w3.org/1999/02/22-rdf-syntax-ns#"
   xmlns:svg="http://www.w3.org/2000/svg"
   xmlns="http://www.w3.org/2000/svg"
   xmlns:sodipodi="http://sodipodi.sourceforge.net/DTD/sodipodi-0.dtd"
   xmlns:inkscape="http://www.inkscape.org/namespaces/inkscape"
   width="297mm"
   height="210mm"
   viewBox="0 0 1052.3622 744.09448"
   id="svg2"
   version="1.1"
   inkscape:version="0.91 r13725"
   sodipodi:docname="logo 5.svg">
  <defs
     id="defs4">
    <clipPath
       id="clipPath3350"
       clipPathUnits="userSpaceOnUse">
      <path
         inkscape:connector-curvature="0"
         id="path3352"
         d="m 0,841.89 595.28,0 L 595.28,0 0,0 0,841.89 Z" />
    </clipPath>
  </defs>
  <sodipodi:namedview
     id="base"
     pagecolor="#ffffff"
     bordercolor="#666666"
     borderopacity="1.0"
     inkscape:pageopacity="0.0"
     inkscape:pageshadow="2"
     inkscape:zoom="0.7"
     inkscape:cx="747.33666"
     inkscape:cy="475.71429"
     inkscape:document-units="px"
     inkscape:current-layer="layer1"
     showgrid="false"
     inkscape:window-width="1600"
     inkscape:window-height="873"
     inkscape:window-x="-9"
     inkscape:window-y="-9"
     inkscape:window-maximized="1" />
  <metadata
     id="metadata7">
    <rdf:RDF>
      <cc:Work
         rdf:about="">
        <dc:format>image/svg+xml</dc:format>
        <dc:type
           rdf:resource="http://purl.org/dc/dcmitype/StillImage" />
        <dc:title></dc:title>
      </cc:Work>
    </rdf:RDF>
  </metadata>
  <g
     inkscape:label="Layer 1"
     inkscape:groupmode="layer"
     id="layer1"
     transform="translate(0,-308.26772)">
    <g
       id="g3346"
       transform="matrix(4.2462573,0,0,-4.2462573,-670.77237,2798.4032)">
      <g
         id="g3348"
         clip-path="url(#clipPath3350)">
        <g
           id="g3354"
           transform="translate(303.3325,523.133)">
          <path
             d="m 0,0 c 0,0 -51.718,7.167 -64.684,32.849 l 12.987,8.546 c 0,0 15.49,-30.327 51.697,-41.395"
             style="fill:#50ade5;fill-opacity:1;fill-rule:nonzero;stroke:none"
             id="path3356"
             inkscape:connector-curvature="0" />
        </g>
        <g
           id="g3358"
           transform="translate(169.4192,561.8977)">
          <path
             d="m 0,0 c 0,0 51.333,30.375 78.333,7.333 0,0 12.375,-13.083 33.667,-1.333 0,0 13.667,9.667 25.333,0.333 0,0 40,-31.333 91.667,6.667 0,0 -50.132,-53.472 -99.667,-24.333 -2.125,1.25 -50.25,-15.167 -63,9.583 0,0 -6.25,20 -66.333,1.75"
             style="fill:#32409e;fill-opacity:1;fill-rule:nonzero;stroke:none"
             id="path3360"
             inkscape:connector-curvature="0" />
        </g>
        <g
           id="g3362"
           transform="translate(230.6891,556.6477)">
          <path
             d="m 0,0 c 0,-5.757 -3.721,-10.425 -8.312,-10.425 -4.59,0 -8.311,4.668 -8.311,10.425 0,5.757 3.721,10.425 8.311,10.425 C -3.721,10.425 0,5.757 0,0"
             style="fill:#32409e;fill-opacity:1;fill-rule:nonzero;stroke:none"
             id="path3364"
             inkscape:connector-curvature="0" />
        </g>
        <g
           id="g3366"
           transform="translate(230.6891,556.6477)">
          <path
             d="m 0,0 c 0,-5.757 -3.721,-10.425 -8.312,-10.425 -4.59,0 -8.311,4.668 -8.311,10.425 0,5.757 3.721,10.425 8.311,10.425 C -3.721,10.425 0,5.757 0,0 Z"
             style="fill:none;stroke:#2e3192;stroke-width:1;stroke-linecap:butt;stroke-linejoin:miter;stroke-miterlimit:10;stroke-dasharray:none;stroke-opacity:1"
             id="path3368"
             inkscape:connector-curvature="0" />
        </g>
      </g>
    </g>
    <path
       d="m 412.06996,920.66975 0,-37.04912 c -2.63588,0.67712 -5.108,1.77162 -7.452,3.28462 l 0,62.3785 c 0.89437,-0.36113 1.78237,-0.72925 2.66387,-1.10375 3.19113,-7.57488 4.7885,-16.74363 4.78813,-27.51025 z m 0,-142.99088 0,-62.81787 c -2.43388,-1.17775 -4.91738,-2.29388 -7.452,-3.34738 l 0,62.68788 c 2.3875,1.58312 4.86612,2.7365 7.452,3.47737"
       style="fill:#ff6600;fill-opacity:1;fill-rule:evenodd;stroke:none"
       id="path3652"
       inkscape:connector-curvature="0" />
    <path
       d="m 483.95796,826.10775 18.05275,-67.3735 c 5.90962,-22.05563 3.02887,-39.03563 -8.636,-50.94325 -2.29013,1.9595 -4.20313,4.2835 -5.71538,6.97187 -2.40987,4.13188 -3.61525,8.6935 -3.70137,13.7725 l 0,80.05538 c 0,0 0,0 0,0 l 0,17.517 z m -79.34,-114.59413 0,62.68788 c 3.53312,2.34212 7.2645,3.7445 11.25,4.26075 4.64812,0.60312 9.29587,0 13.77287,-1.80775 4.47563,-1.80738 8.43525,-4.73388 11.965,-8.866 2.75425,-3.87363 4.3895,-8.178 4.82038,-12.91188 0.51587,-4.73525 -0.17225,-9.29724 -1.8935,-13.77287 -1.8075,-4.47663 -4.64813,-8.35013 -8.60888,-11.5355 -9.43762,-7.25988 -19.856,-13.29525 -31.30587,-18.05463 z m 0,175.39163 0,62.3785 c 11.44987,-4.62225 21.86825,-10.35675 31.30587,-17.25413 3.96075,-3.52887 6.80138,-7.4885 8.60888,-11.96512 1.72125,-4.4755 2.40937,-9.03863 1.8935,-13.60025 -0.43088,-4.56163 -2.06613,-8.78 -4.82038,-12.6535 -3.52975,-4.13213 -7.5755,-7.14475 -12.1375,-8.9525 -4.56175,-1.8085 -9.12475,-2.4105 -13.7725,-1.8935 -4.03225,0.43937 -7.689,1.75287 -11.07787,3.9405"
       style="fill:#ff6600;fill-opacity:0.9;fill-rule:evenodd;stroke:none"
       id="path3654"
       inkscape:connector-curvature="0" />
    <path
       d="m 497.05796,955.42212 42.68012,-73.924 0,-72.90737 c 0.0861,-9.72713 2.41088,-18.59325 6.97263,-26.4275 4.56262,-7.83313 10.6735,-14.03113 18.42162,-18.67925 3.80588,-2.24113 7.8615,-3.96275 12.156,-5.14488 -4.876,-5.86875 -11.55475,-11.25425 -20.04275,-16.155 l -62.04475,-35.82175 c -3.1135,2.22588 -5.64337,5.02625 -7.5415,8.4005 -2.40987,4.13188 -3.61525,8.6935 -3.70137,13.7725 l 0,80.05538 c 0,0 0,0 0,0 l 0,123.43887 c 0.0861,5.079 1.2915,9.642 3.70137,13.77388 2.26238,4.02125 5.422,7.22762 9.39863,9.61862 z m -92.44,-243.9085 0,62.68788 c 3.53312,2.34212 7.2645,3.7445 11.25,4.26075 4.64812,0.60312 9.29587,0 13.77287,-1.80775 4.47563,-1.80738 8.43525,-4.73388 11.965,-8.866 2.75425,-3.87363 4.3895,-8.178 4.82038,-12.91188 0.51587,-4.73525 -0.17225,-9.29724 -1.8935,-13.77287 -1.8075,-4.47663 -4.64813,-8.35013 -8.60888,-11.5355 -9.43762,-7.25988 -19.856,-13.29525 -31.30587,-18.05463 z m 0,175.39163 0,62.3785 c 11.44987,-4.62225 21.86825,-10.35675 31.30587,-17.25413 3.96075,-3.52887 6.80138,-7.4885 8.60888,-11.96512 1.72125,-4.4755 2.40937,-9.03863 1.8935,-13.60025 -0.43088,-4.56163 -2.06613,-8.78 -4.82038,-12.6535 -3.52975,-4.13213 -7.5755,-7.14475 -12.1375,-8.9525 -4.56175,-1.8085 -9.12475,-2.4105 -13.7725,-1.8935 -4.03225,0.43937 -7.689,1.75287 -11.07787,3.9405"
       style="fill:#ff6600;fill-opacity:0.8;fill-rule:evenodd;stroke:none"
       id="path3656"
       inkscape:connector-curvature="0" />
    <path
       d="m 645.10121,865.2535 c 15.12712,-19.73025 15.10162,-39.45975 -0.078,-59.1885 0.0444,0.8355 0.0705,1.67712 0.078,2.52575 l 0,56.66275 z M 596.68858,756.70112 550.00946,710.0215 c -4.66863,2.06337 -9.12088,4.44262 -13.37025,7.15075 -2.40988,-4.9925 -5.85363,-8.866 -10.32913,-11.70663 -4.47662,-2.84037 -9.4695,-4.218 -14.978,-4.30337 -5.25112,0.0854 -9.90025,1.2905 -13.946,3.78737 -4.13112,2.40988 -7.40237,5.681 -9.72675,9.81325 -2.40987,4.13188 -3.61525,8.6935 -3.70137,13.7725 l 0,80.05538 c 0,0 0,0 0,0 l 0,123.43887 c 0.0861,5.079 1.2915,9.642 3.70137,13.77388 2.32438,4.13112 5.59563,7.40225 9.72675,9.81312 4.04575,2.49563 8.69488,3.70101 13.946,3.78713 4.47563,-0.0861 8.69388,-1.03288 12.481,-3.01288 3.7875,-1.97962 7.059,-4.56162 9.641,-7.91925 2.58275,-3.35762 4.304,-7.14475 5.25113,-11.277 0.517,-1.03287 0.77425,-1.97962 0.86075,-2.75412 0.17212,-0.86075 0.17212,-1.63525 0.17212,-2.41088 l 0,0 0,-123.43887 c 0.0861,-9.72713 2.41088,-18.59325 6.97263,-26.4275 4.56262,-7.83313 10.6735,-14.03113 18.42162,-18.67925 7.747,-4.56163 16.527,-6.9725 26.25375,-7.05863 1.79613,0.0156 3.56388,0.10813 5.3025,0.27575 z m -192.07062,-45.18749 0,62.68787 c 3.53312,2.34213 7.2645,3.7445 11.25,4.26075 4.64812,0.60313 9.29587,0 13.77287,-1.80775 4.47563,-1.80738 8.43525,-4.73388 11.965,-8.866 2.75425,-3.87363 4.3895,-8.178 4.82038,-12.91188 0.51587,-4.73524 -0.17225,-9.29724 -1.8935,-13.77287 -1.8075,-4.47663 -4.64813,-8.35012 -8.60888,-11.5355 -9.43762,-7.25988 -19.856,-13.29525 -31.30587,-18.05462 z m 0,175.39162 0,62.3785 c 11.44987,-4.62225 21.86825,-10.35675 31.30587,-17.25413 3.96075,-3.52887 6.80138,-7.4885 8.60888,-11.96512 1.72125,-4.4755 2.40937,-9.03863 1.8935,-13.60025 -0.43088,-4.56163 -2.06613,-8.78 -4.82038,-12.6535 -3.52975,-4.13213 -7.5755,-7.14475 -12.1375,-8.9525 -4.56175,-1.8085 -9.12475,-2.4105 -13.7725,-1.8935 -4.03225,0.43937 -7.689,1.75287 -11.07787,3.9405"
       style="fill:#0582ba;fill-opacity:0.7;fill-rule:evenodd;stroke:none"
       id="path3658"
       inkscape:connector-curvature="0" />
    <path
       d="m 649.54021,946.70237 32.9805,-19.04137 c 6.74537,-3.89438 12.34662,-8.09575 16.81075,-12.60138 l 0,-67.27 -82.98425,-143.73425 c -7.9905,-1.88512 -16.30488,-2.84424 -24.96113,-2.89312 -10.1565,0.0854 -19.79825,1.463 -29.09412,4.30337 -9.29725,2.84063 -17.81963,6.71413 -25.65275,11.70663 -2.40988,-4.9925 -5.85363,-8.866 -10.32913,-11.70663 -4.47662,-2.84037 -9.4695,-4.218 -14.978,-4.30337 -5.25112,0.0854 -9.90025,1.2905 -13.946,3.78737 -4.13112,2.40988 -7.40237,5.681 -9.72675,9.81325 -2.40987,4.13188 -3.61525,8.6935 -3.70137,13.7725 l 0,80.05538 c 0,0 0,0 0,0 l 0,123.43887 c 0.0861,5.079 1.2915,9.642 3.70137,13.77388 2.32438,4.13112 5.59563,7.40225 9.72675,9.81312 4.04575,2.49563 8.69488,3.70101 13.946,3.78713 4.47563,-0.0861 8.69388,-1.03288 12.481,-3.01288 3.7875,-1.97962 7.059,-4.56162 9.641,-7.91925 2.58275,-3.35762 4.304,-7.14475 5.25113,-11.277 0.517,-1.03287 0.77425,-1.97962 0.86075,-2.75412 0.17212,-0.86075 0.17212,-1.63525 0.17212,-2.41088 l 0,0 0,-123.43887 c 0.0861,-9.72713 2.41088,-18.59325 6.97263,-26.4275 4.56262,-7.83313 10.6735,-14.03113 18.42162,-18.67925 7.747,-4.56163 16.527,-6.9725 26.25375,-7.05863 9.89925,0.0861 18.93788,2.497 27.02938,7.05863 8.09187,4.64812 14.5485,10.84612 19.28237,18.67925 4.82063,7.83425 7.31725,16.70037 7.40338,26.4275 l 0,123.43887 c 0.0865,5.079 1.37687,9.642 3.8735,13.77388 0.18387,0.30437 0.37237,0.60375 0.5655,0.89887 z m -244.92225,-235.18875 0,62.68788 c 3.53312,2.34212 7.2645,3.7445 11.25,4.26075 4.64812,0.60312 9.29587,0 13.77287,-1.80775 4.47563,-1.80738 8.43525,-4.73388 11.965,-8.866 2.75425,-3.87363 4.3895,-8.178 4.82038,-12.91188 0.51587,-4.73525 -0.17225,-9.29724 -1.8935,-13.77287 -1.8075,-4.47663 -4.64813,-8.35013 -8.60888,-11.5355 -9.43762,-7.25988 -19.856,-13.29525 -31.30587,-18.05463 z m 0,175.39163 0,62.3785 c 11.44987,-4.62225 21.86825,-10.35675 31.30587,-17.25413 3.96075,-3.52887 6.80138,-7.4885 8.60888,-11.96512 1.72125,-4.4755 2.40937,-9.03863 1.8935,-13.60025 -0.43088,-4.56163 -2.06613,-8.78 -4.82038,-12.6535 -3.52975,-4.13213 -7.5755,-7.14475 -12.1375,-8.9525 -4.56175,-1.8085 -9.12475,-2.4105 -13.7725,-1.8935 -4.03225,0.43937 -7.689,1.75287 -11.07787,3.9405"
       style="fill:#0582ba;fill-opacity:0.6;fill-rule:evenodd;stroke:none"
       id="path3660"
       inkscape:connector-curvature="0" />
    <path
       d="m 746.39871,955.64 c 10.26887,-11.796 12.59712,-28.17738 6.97812,-49.14662 l -21.5075,-80.27013 0,104.7735 c 0.0861,5.25113 1.37763,9.98537 3.95963,14.20362 2.497,4.3045 5.93962,7.74676 10.24412,10.24375 l 0.32563,0.19588 z m -403.30663,-253.93463 21.38563,55.43438 c 5.57962,0.72 10.90975,1.98925 16.01075,3.84875 8.178,3.0125 15.66637,6.9725 22.38125,11.965 4.04612,3.099 8.34912,4.9065 12.99825,5.50875 4.64812,0.60312 9.29587,0 13.77287,-1.80775 4.47563,-1.80738 8.43525,-4.73388 11.965,-8.866 2.75425,-3.87363 4.3895,-8.178 4.82038,-12.91188 0.51587,-4.73525 -0.17225,-9.29724 -1.8935,-13.77287 -1.8075,-4.47663 -4.64813,-8.35013 -8.60888,-11.5355 -11.18975,-8.6075 -23.75787,-15.49388 -37.78937,-20.57288 -13.945,-5.07862 -28.75075,-7.74775 -44.33063,-7.83312 -3.61887,0.0518 -7.189,0.23275 -10.71175,0.54312 z m 66.9865,182.5165 13.27188,55.97825 c 4.37062,-2.51574 8.561,-5.23812 12.57337,-8.1705 3.96075,-3.52887 6.80138,-7.4885 8.60888,-11.96512 1.72125,-4.4755 2.40937,-9.03862 1.8935,-13.60025 -0.43088,-4.56163 -2.06613,-8.78 -4.82038,-12.6535 -3.52975,-4.13213 -7.5755,-7.14475 -12.1375,-8.9525 -4.56175,-1.8085 -9.12475,-2.4105 -13.7725,-1.8935 -1.95662,0.21325 -3.825,0.63212 -5.61725,1.25712 z m 181.3075,-183.05962 c -10.1565,0.0854 -19.79825,1.463 -29.09412,4.30338 -9.29725,2.84062 -17.81963,6.71412 -25.65275,11.70662 -2.40988,-4.9925 -5.85363,-8.866 -10.32913,-11.70662 -4.47662,-2.84038 -9.4695,-4.218 -14.978,-4.30338 -5.25112,0.0854 -9.90025,1.2905 -13.946,3.78737 -4.13112,2.40988 -7.40237,5.681 -9.72675,9.81325 -2.40987,4.13188 -3.61525,8.6935 -3.70137,13.77251 l 0,80.05537 c 0,0 0,0 0,0 l 0,123.43888 c 0.0861,5.079 1.2915,9.642 3.70137,13.77387 2.32438,4.13113 5.59563,7.40225 9.72675,9.81313 4.04575,2.49562 8.69488,3.701 13.946,3.78712 4.47563,-0.0861 8.69388,-1.03287 12.481,-3.01287 3.7875,-1.97963 7.059,-4.56163 9.641,-7.91925 2.58275,-3.35763 4.304,-7.14475 5.25113,-11.277 0.517,-1.03288 0.77425,-1.97963 0.86075,-2.75413 0.17212,-0.86075 0.17212,-1.63525 0.17212,-2.41087 l 0,0 0,-123.43888 c 0.0861,-9.72712 2.41088,-18.59325 6.97263,-26.4275 4.56262,-7.83312 10.6735,-14.03112 18.42162,-18.67925 7.747,-4.56162 16.527,-6.9725 26.25375,-7.05862 9.89925,0.0861 18.93788,2.49699 27.02938,7.05862 8.09187,4.64813 14.5485,10.84613 19.28237,18.67925 4.82063,7.83425 7.31725,16.70038 7.40338,26.4275 l 0,123.43888 c 0.0865,5.079 1.37687,9.642 3.8735,13.77387 2.496,4.13113 5.85362,7.40225 9.98537,9.81313 4.13225,2.49562 8.60775,3.701 13.51425,3.78712 5.079,-0.0861 9.55563,-1.2915 13.60138,-3.78712 4.046,-2.41088 7.23,-5.682 9.64062,-9.81313 2.32475,-4.13187 3.52913,-8.69487 3.61513,-13.77387 l 0,-123.43888 c -0.086,-14.71963 -2.92675,-28.49362 -8.4355,-41.40537 -5.5095,-12.91213 -13.25663,-24.36025 -23.06938,-34.17338 -9.81325,-9.899 -21.26237,-17.64713 -34.26062,-23.242 -13.08438,-5.681 -27.1155,-8.52237 -42.17988,-8.60775"
       style="fill:#0582ba;fill-opacity:0.5;fill-rule:evenodd;stroke:none"
       id="path3662"
       inkscape:connector-curvature="0" />
    <path
       d="m 789.19971,653.35137 c -5.51938,-24.02125 -23.05063,-36.03225 -52.59188,-36.03225 l -3.24962,0 c -0.94675,2.80913 -1.43713,5.78688 -1.48888,8.95213 l 0,304.7255 c 0.0861,5.25112 1.37763,9.98537 3.95963,14.20362 2.497,4.3045 5.93962,7.74675 10.24412,10.24375 4.21825,2.582 8.95213,3.8735 14.20338,3.95963 5.42262,-0.0861 10.244,-1.37763 14.6335,-3.95963 4.30437,-2.497 7.747,-5.93925 10.33012,-10.24375 2.58163,-4.21825 3.87313,-8.9525 3.95963,-14.20362 l 0,-277.64538 z m -197.81363,47.81088 c -10.1565,0.0854 -19.79825,1.463 -29.09412,4.30337 -9.29725,2.84063 -17.81963,6.71413 -25.65275,11.70663 -2.40988,-4.9925 -5.85363,-8.866 -10.32913,-11.70663 -4.47662,-2.84037 -9.4695,-4.218 -14.978,-4.30337 -5.25112,0.0854 -9.90025,1.2905 -13.946,3.78737 -4.13112,2.40988 -7.40237,5.681 -9.72675,9.81325 -2.40987,4.13188 -3.61525,8.6935 -3.70137,13.7725 l 0,80.05538 c 0,0 0,0 0,0 l 0,123.43887 c 0.0861,5.079 1.2915,9.642 3.70137,13.77388 2.32438,4.13112 5.59563,7.40225 9.72675,9.81312 4.04575,2.49563 8.69488,3.70101 13.946,3.78713 4.47563,-0.0861 8.69388,-1.03288 12.481,-3.01288 3.7875,-1.97962 7.059,-4.56162 9.641,-7.91925 2.58275,-3.35762 4.304,-7.14475 5.25113,-11.277 0.517,-1.03287 0.77425,-1.97962 0.86075,-2.75412 0.17212,-0.86075 0.17212,-1.63525 0.17212,-2.41088 l 0,0 0,-123.43887 c 0.0861,-9.72713 2.41088,-18.59325 6.97263,-26.4275 4.56262,-7.83313 10.6735,-14.03113 18.42162,-18.67925 7.747,-4.56163 16.527,-6.9725 26.25375,-7.05863 9.89925,0.0861 18.93788,2.497 27.02938,7.05863 8.09187,4.64812 14.5485,10.84612 19.28237,18.67925 4.82063,7.83425 7.31725,16.70037 7.40338,26.4275 l 0,123.43887 c 0.0865,5.079 1.37687,9.642 3.8735,13.77388 2.496,4.13112 5.85362,7.40225 9.98537,9.81312 4.13225,2.49563 8.60775,3.70101 13.51425,3.78713 5.079,-0.0861 9.55563,-1.2915 13.60138,-3.78713 4.046,-2.41087 7.23,-5.682 9.64062,-9.81312 2.32475,-4.13188 3.52913,-8.69488 3.61513,-13.77388 l 0,-123.43887 c -0.086,-14.71963 -2.92675,-28.49363 -8.4355,-41.40538 -5.5095,-12.91212 -13.25663,-24.36025 -23.06938,-34.17337 -9.81325,-9.899 -21.26237,-17.64713 -34.26062,-23.242 -13.08438,-5.681 -27.1155,-8.52238 -42.17988,-8.60775"
       style="fill:#0582ba;fill-opacity:0.5;fill-rule:evenodd;stroke:none"
       id="path3664"
       inkscape:connector-curvature="0" />
    <path
       d="m 406.65721,948.44362 c 0.21075,-15.19012 -8.72538,-25.7545 -26.8115,-31.68962 l -42.0105,-13.78625 c -4.6985,-0.98575 -9.2495,-2.40275 -13.64388,-4.25063 -0.702,-0.29512 -1.39787,-0.5995 -2.08662,-0.91162 l -83.54025,-27.41463 c -4.09463,-1.34362 -7.3885,-1.92225 -10.07675,-1.83862 1.318,4.133 2.8605,8.19075 4.631,12.17412 6.80037,15.49388 16.26837,29.18163 28.406,40.88838 12.0515,11.79287 25.9105,21.00362 41.749,27.63137 15.75362,6.62888 32.53925,10.0715 50.53012,10.15763 0,0 0,0 0,0 15.57988,-0.17225 30.38563,-2.66813 44.33063,-7.66063 2.90337,-1.03325 5.74375,-2.13312 8.52275,-3.2995"
       style="fill:#0582ba;fill-opacity:0.5;fill-rule:evenodd;stroke:none"
       id="path3666"
       inkscape:connector-curvature="0" />
    <path
       d="m 312.93071,768.37137 -9.83338,-3.227 c -23.74475,-7.79137 -39.51325,0.18501 -47.30462,23.92838 l -25.27788,85.30862 c 0.80575,2.13563 1.67313,4.25063 2.60388,6.345 6.80037,15.49388 16.26837,29.18163 28.406,40.88838 12.0515,11.79287 25.9105,21.00362 41.749,27.63137 15.75362,6.62888 32.53925,10.0715 50.53012,10.15763 0,0 0,0 0,0 15.57988,-0.17225 30.38563,-2.66813 44.33063,-7.66063 14.0315,-4.99287 26.59962,-11.53562 37.78937,-19.7135 3.96075,-3.52887 6.80138,-7.4885 8.60888,-11.96512 1.72125,-4.4755 2.40937,-9.03863 1.8935,-13.60025 -0.43088,-4.56163 -2.06613,-8.78 -4.82038,-12.6535 -3.52975,-4.13213 -7.5755,-7.14475 -12.1375,-8.9525 -4.56175,-1.8085 -9.12475,-2.4105 -13.7725,-1.8935 -4.73525,0.51587 -8.9525,2.23725 -12.82612,5.164 -6.801,4.9925 -14.28975,8.95212 -22.63988,11.965 -8.263,2.92675 -17.13012,4.477 -26.426,4.56312 -10.50237,-0.0861 -20.40175,-2.06612 -29.6125,-5.93975 -9.20975,-3.8735 -17.30162,-9.21075 -24.27412,-16.09712 -7.05863,-6.8 -12.5685,-14.63325 -16.52813,-23.50075 -3.95962,-8.866 -5.93925,-18.33438 -6.02537,-28.3195 0.0861,-9.98538 2.06575,-19.45488 6.02537,-28.40738 3.95963,-8.95212 9.4695,-16.78537 16.52813,-23.67175 3.97412,-3.92525 8.31225,-7.375 13.0135,-10.34925"
       style="fill:#0582ba;fill-opacity:0.5;fill-rule:evenodd;stroke:none"
       id="path3668"
       inkscape:connector-curvature="0" />
    <path
       d="m 249.94446,752.0785 109.58212,-22.88513 c 24.17138,-5.0475 38.78075,4.51413 43.82825,28.68375 l 3.71338,17.78138 c -1.43113,-0.75613 -2.82963,-1.6565 -4.1985,-2.705 -6.71488,-4.9925 -14.20325,-8.9525 -22.38125,-11.965 -8.26413,-3.01288 -17.13013,-4.477 -26.68463,-4.56313 -10.50237,0.0861 -20.40175,2.06613 -29.6125,6.02575 -9.20975,3.95963 -17.30162,9.38313 -24.27412,16.2695 -7.05863,6.88638 -12.5685,14.71963 -16.52813,23.67176 -3.95962,8.95249 -5.93925,18.42199 -6.02537,28.40737 0.0861,9.98512 2.06575,19.4535 6.02537,28.3195 3.95963,8.8675 9.4695,16.70075 16.52813,23.50075 6.9725,6.88637 15.06437,12.22362 24.27412,16.09712 9.21075,3.87363 19.11013,5.85363 29.6125,5.93976 9.29588,-0.0861 18.163,-1.63638 26.426,-4.56313 8.35013,-3.01288 15.83888,-6.9725 22.63988,-11.965 3.87362,-2.92675 8.09087,-4.64812 12.82612,-5.164 4.64775,-0.517 9.21075,0.085 13.7725,1.8935 0.14813,0.0589 0.29613,0.11875 0.44325,0.18 l 9.15488,43.83638 c -0.956,1.08887 -2.00313,2.13974 -3.14263,3.15499 -11.18975,8.17788 -23.75787,14.72063 -37.78937,19.7135 -13.945,4.99251 -28.75075,7.48838 -44.33063,7.66063 0,0 0,0 0,0 -17.99087,-0.0861 -34.7765,-3.52875 -50.53012,-10.15763 -15.8385,-6.62774 -29.6975,-15.83849 -41.749,-27.63137 -12.13763,-11.70675 -21.60563,-25.3945 -28.406,-40.88838 -6.88738,-15.49524 -10.32975,-32.10837 -10.50225,-49.92662 0.1725,-18.07725 3.61487,-34.86263 10.50225,-50.44388 4.46075,-10.21962 10.06912,-19.66149 16.82575,-28.27737"
       style="fill:#0582ba;fill-opacity:0.5;fill-rule:evenodd;stroke:none"
       id="path3670"
       inkscape:connector-curvature="0" />
    <path
       d="m 423.78983,939.946 0,-56.7205 c -2.68025,-0.48225 -5.37275,-0.56338 -8.094,-0.26075 -4.73525,0.51587 -8.9525,2.23725 -12.82612,5.164 -6.801,4.9925 -14.28975,8.95212 -22.63988,11.965 -8.263,2.92675 -17.13012,4.477 -26.426,4.56313 -10.50237,-0.0861 -20.40175,-2.06613 -29.6125,-5.93976 -9.20975,-3.8735 -17.30162,-9.21075 -24.27412,-16.09712 -7.05863,-6.8 -12.5685,-14.63325 -16.52813,-23.50075 -3.95962,-8.866 -5.93925,-18.33438 -6.02537,-28.3195 0.0861,-9.98538 2.06575,-19.45488 6.02537,-28.40738 3.95963,-8.95212 9.4695,-16.78537 16.52813,-23.67175 6.9725,-6.88637 15.06437,-12.30987 24.27412,-16.2695 9.21075,-3.95962 19.11013,-5.93962 29.6125,-6.02575 9.5545,0.0861 18.4205,1.55025 26.68463,4.56313 8.178,3.0125 15.66637,6.9725 22.38125,11.965 4.04612,3.099 8.34912,4.9065 12.99825,5.50875 2.65112,0.34412 5.30225,0.29525 7.92187,-0.14525 l 0,-41.24375 c 2.5e-4,-6.3655 -0.68287,-12.0475 -2.0445,-17.05113 -7.3595,-4.309 -15.22387,-7.99075 -23.61087,-11.02675 -13.945,-5.07862 -28.75075,-7.74775 -44.33063,-7.83312 -17.99087,0.25762 -34.7765,3.70137 -50.53012,10.41512 -15.8385,6.62775 -29.6975,15.839 -41.749,27.63188 -12.13763,11.79387 -21.60563,25.56637 -28.406,41.14662 -6.88738,15.58125 -10.32975,32.36663 -10.50225,50.44388 0.1725,17.81825 3.61487,34.43137 10.50225,49.92662 6.80037,15.49388 16.26837,29.18163 28.406,40.88838 12.0515,11.79287 25.9105,21.00362 41.749,27.63137 15.75362,6.62888 32.53925,10.0715 50.53012,10.15763 0,0 0,0 0,0 15.57988,-0.17225 30.38563,-2.66813 44.33063,-7.66063 9.16862,-3.26262 17.71225,-7.18724 25.65537,-11.79712"
       style="fill:#0582ba;fill-opacity:0.5;fill-rule:evenodd;stroke:none"
       id="path3672"
       inkscape:connector-curvature="0" />
    <path
       d="m 662.29683,1033.5031 c 0,0 0,0 0.01,0 0,0 0.0195,0 0.0489,0 0,0 0,0 0.0199,0 0.01,0 0.0393,0 0.0981,0 l 19.07325,0 c 0.579,-0.01 1.10875,-0.1568 1.5995,-0.4514 0.49037,-0.2845 0.88287,-0.6767 1.177,-1.1576 0.2945,-0.4907 0.4515,-1.0303 0.46137,-1.6288 -0.01,-0.6179 -0.16687,-1.1675 -0.46137,-1.6678 -0.29413,-0.4907 -0.68663,-0.883 -1.177,-1.1775 -0.49075,-0.2944 -1.0205,-0.4415 -1.5995,-0.4514 l -15.95338,0 0,-31.43548 c -0.01,-0.5985 -0.157,-1.13812 -0.4515,-1.62887 -0.294,-0.48088 -0.68662,-0.87313 -1.177,-1.1675 -0.50075,-0.28462 -1.04987,-0.43163 -1.66825,-0.4415 -0.61787,0.01 -1.1675,0.15688 -1.64825,0.4415 -0.4905,0.29437 -0.87312,0.68662 -1.15762,1.1675 -0.2845,0.49075 -0.422,1.03037 -0.43163,1.62887 l 0,34.73218 c 0.01,0.5985 0.14713,1.1381 0.43163,1.6288 0.2845,0.4809 0.66712,0.8731 1.15762,1.1576 0.48075,0.2946 1.03038,0.4416 1.64825,0.4514"
       style="fill:#000000;fill-opacity:1;fill-rule:nonzero;stroke:none"
       id="path3674"
       inkscape:connector-curvature="0" />
    <path
       d="m 698.50133,1033.6796 c 0,0 0,0 0,0 1.96225,-0.01 3.77713,-0.4121 5.46488,-1.1969 1.68762,-0.7848 3.13962,-1.8836 4.366,-3.2768 1.33437,-1.305 2.345,-2.8453 3.0515,-4.6018 0.70625,-1.766 1.0595,-3.6888 1.06937,-5.7592 l 0,0 c -0.01,-2.0017 -0.36312,-3.8658 -1.06937,-5.5924 -0.7065,-1.727 -1.71713,-3.2968 -3.0515,-4.7095 -1.22638,-1.3931 -2.67838,-2.4923 -4.366,-3.2771 -1.68775,-0.7849 -3.50263,-1.187 -5.46488,-1.197 -2.031,0.01 -3.89512,0.4121 -5.59275,1.197 -1.69725,0.7848 -3.20812,1.884 -4.533,3.2771 -1.27525,1.4127 -2.26625,2.9825 -2.98237,4.7095 -0.7065,1.7266 -1.06975,3.5907 -1.07925,5.5924 0.01,2.0704 0.37275,3.9932 1.07925,5.7592 0.71612,1.7565 1.70712,3.2968 2.98237,4.6018 1.32488,1.3932 2.83575,2.492 4.533,3.2768 1.69763,0.7848 3.56175,1.1873 5.59275,1.1969 z m -5.65162,-20.9569 c 0.736,-0.6576 1.58962,-1.1972 2.54125,-1.6093 0.95175,-0.4022 1.99175,-0.618 3.11037,-0.6279 1.04,0.01 2.01113,0.2257 2.9335,0.6279 0.91238,0.4121 1.7465,0.9517 2.48213,1.6093 0.73587,0.7944 1.305,1.7168 1.6975,2.7472 0.40225,1.04 0.5985,2.1586 0.5985,3.375 l 0,0 c 0,1.2656 -0.19625,2.4137 -0.5985,3.4536 -0.3925,1.0301 -0.96163,1.9623 -1.6975,2.7865 -0.73563,0.7065 -1.56975,1.2461 -2.48213,1.6189 -0.92237,0.3727 -1.8935,0.5591 -2.9335,0.5591 -1.11862,0 -2.15862,-0.1864 -3.11037,-0.5591 -0.95163,-0.3728 -1.80525,-0.9124 -2.54125,-1.6189 -0.67713,-0.8242 -1.20688,-1.7564 -1.56963,-2.7865 -0.36325,-1.0399 -0.54962,-2.188 -0.54962,-3.4536 0,-1.2164 0.18637,-2.335 0.54962,-3.375 0.36275,-1.0304 0.8925,-1.9528 1.56963,-2.7472"
       style="fill:#000000;fill-opacity:1;fill-rule:nonzero;stroke:none"
       id="path3676"
       inkscape:connector-curvature="0" />
    <path
       d="m 730.99658,1004.1277 c -0.98112,-0.01 -1.91337,0.079 -2.79637,0.2845 -0.883,0.1964 -1.717,0.4709 -2.492,0.8242 -0.76538,0.3533 -1.48138,0.7458 -2.12913,1.1873 -0.20587,0.1472 -0.422,0.3335 -0.63775,0.5398 -0.21587,0.2157 -0.42175,0.4216 -0.5985,0.6374 l 0,-0.4122 c -0.01,-0.5786 -0.157,-1.0887 -0.45137,-1.5501 -0.28463,-0.461 -0.67688,-0.8242 -1.15763,-1.0987 -0.49075,-0.2652 -1.03012,-0.4023 -1.62887,-0.4122 -0.57863,0.01 -1.09875,0.147 -1.56975,0.4122 -0.47088,0.2745 -0.84363,0.6377 -1.11863,1.0987 -0.2845,0.4614 -0.42162,0.9715 -0.4315,1.5501 l 0,23.1945 c 0.01,0.5787 0.147,1.0989 0.4315,1.5698 0.275,0.4709 0.64775,0.8436 1.11863,1.1186 0.471,0.2845 0.99112,0.4217 1.56975,0.4315 0.59875,-0.01 1.13812,-0.147 1.62887,-0.4315 0.48075,-0.275 0.873,-0.6477 1.15763,-1.1186 0.29437,-0.4709 0.44137,-0.9911 0.45137,-1.5698 l 0,-11.1851 c 0.0981,-0.2845 0.24513,-0.6966 0.4415,-1.2264 0.19625,-0.5396 0.46138,-1.1285 0.78488,-1.7857 0.32375,-0.6474 0.71637,-1.2951 1.18725,-1.9329 0.35337,-0.5591 0.7555,-1.0889 1.197,-1.5697 0.45137,-0.4808 0.95175,-0.9028 1.51087,-1.2562 0.50063,-0.3822 1.04,-0.6667 1.62888,-0.8436 0.5885,-0.1864 1.22625,-0.2746 1.90337,-0.2746 0.5985,-0.01 1.12825,-0.1569 1.58963,-0.4415 0.47087,-0.2845 0.84362,-0.6671 1.11825,-1.1381 0.265,-0.4709 0.40212,-0.9812 0.412,-1.5406 -0.01,-0.5787 -0.147,-1.0888 -0.412,-1.5502 -0.27463,-0.461 -0.64738,-0.8242 -1.11825,-1.0987 -0.46138,-0.2651 -0.99113,-0.4023 -1.58963,-0.4122"
       style="fill:#000000;fill-opacity:1;fill-rule:nonzero;stroke:none"
       id="path3678"
       inkscape:connector-curvature="0" />
    <path
       d="m 747.95033,1033.5031 c 0,0 0,0 0,0 1.77588,-0.019 3.46325,-0.304 5.05275,-0.873 1.59938,-0.5691 3.03163,-1.315 4.30725,-2.2469 0.45138,-0.4024 0.77488,-0.8534 0.98113,-1.3637 0.19625,-0.5102 0.27462,-1.0304 0.21575,-1.5503 -0.0489,-0.5201 -0.23525,-1.001 -0.5495,-1.4424 -0.40225,-0.4709 -0.86325,-0.8143 -1.38338,-1.0204 -0.51975,-0.2059 -1.04,-0.2746 -1.56962,-0.2159 -0.53975,0.059 -1.0205,0.2551 -1.462,0.5889 -0.77525,0.5691 -1.62888,1.0201 -2.58025,1.3639 -0.94213,0.3333 -1.95275,0.5098 -3.01213,0.5197 -1.197,-0.01 -2.3255,-0.2352 -3.37537,-0.6767 -1.04988,-0.4419 -1.97188,-1.0499 -2.76663,-1.8348 -0.80475,-0.7753 -1.43262,-1.6681 -1.884,-2.6786 -0.451,-1.0107 -0.67675,-2.0899 -0.68662,-3.228 0.01,-1.1382 0.23562,-2.2174 0.68662,-3.2379 0.45138,-1.0201 1.07925,-1.913 1.884,-2.6979 0.79475,-0.7852 1.71675,-1.4031 2.76663,-1.8546 1.04987,-0.451 2.17837,-0.6768 3.37537,-0.6866 1.08888,0.01 2.09938,0.1763 3.0415,0.5201 0.93188,0.3434 1.7855,0.7944 2.55088,1.3635 0.461,0.3532 0.95175,0.5595 1.4815,0.6282 0.52962,0.068 1.05975,0 1.57,-0.2062 0.50987,-0.2059 0.96125,-0.5396 1.3635,-1.0106 0.31425,-0.4415 0.50062,-0.9319 0.5495,-1.4715 0.0589,-0.5397 -0.0195,-1.0598 -0.21575,-1.57 -0.20625,-0.5103 -0.52975,-0.9518 -0.98113,-1.3147 -1.27562,-0.9811 -2.70787,-1.7662 -4.30725,-2.3448 -1.5895,-0.579 -3.27687,-0.883 -5.05275,-0.893 -2.05087,0.029 -3.96387,0.422 -5.75937,1.187 -1.80525,0.7558 -3.38488,1.8053 -4.75863,3.1497 -1.38325,1.3443 -2.46262,2.914 -3.23787,4.6899 -0.78488,1.7759 -1.17713,3.6889 -1.19688,5.7494 0.0198,2.031 0.412,3.9245 1.19688,5.6905 0.77525,1.7664 1.85462,3.3261 3.23787,4.6605 1.37375,1.3444 2.95338,2.3938 4.75863,3.1497 1.7955,0.7554 3.7085,1.1477 5.75937,1.1575"
       style="fill:#000000;fill-opacity:1;fill-rule:nonzero;stroke:none"
       id="path3680"
       inkscape:connector-curvature="0" />
    <path
       d="m 788.27496,1007.248 c -0.01,-0.5989 -0.14713,-1.1286 -0.43163,-1.6094 -0.27462,-0.4805 -0.64775,-0.8536 -1.11862,-1.1381 -0.47088,-0.2845 -0.99075,-0.4216 -1.56975,-0.4316 -0.77525,0.019 -1.4325,0.2651 -1.97213,0.7455 -0.53962,0.4808 -0.9025,1.0892 -1.08887,1.8447 -1.11863,-0.8044 -2.33538,-1.4326 -3.65,-1.8936 -1.31488,-0.4514 -2.70813,-0.6866 -4.17963,-0.6966 -2.0115,0.01 -3.86575,0.4121 -5.5535,1.187 -1.69725,0.7852 -3.17862,1.8546 -4.45425,3.228 -1.27562,1.3343 -2.25675,2.8846 -2.95337,4.651 -0.68663,1.7658 -1.03988,3.6693 -1.0495,5.71 0.01,2.0115 0.36287,3.9051 1.0495,5.671 0.69662,1.7561 1.67775,3.3261 2.95337,4.69 1.27563,1.3343 2.757,2.3838 4.45425,3.1397 1.68775,0.7554 3.542,1.1476 5.5535,1.1575 0,0 0,0 0,0 1.4715,-0.01 2.86475,-0.2256 4.17963,-0.6671 1.31462,-0.4415 2.53137,-1.0595 3.65,-1.8641 0.11762,0.4709 0.3235,0.9023 0.608,1.2851 0.2945,0.3826 0.63787,0.6771 1.05987,0.9029 0.412,0.2256 0.883,0.3334 1.39313,0.3432 0.579,-0.01 1.09887,-0.147 1.56975,-0.4315 0.47087,-0.275 0.844,-0.6477 1.11862,-1.1186 0.2845,-0.4709 0.422,-0.9911 0.43163,-1.5698 l 0,-11.5383 c 0,0 0,0 0,0 0,0 0,0 0,0 l 0,-11.5969 z m -8.53588,17.6605 c -0.71612,0.7356 -1.55025,1.3046 -2.492,1.6973 -0.95175,0.3926 -1.94275,0.5985 -2.98275,0.5985 -1.06937,0 -2.08,-0.2059 -3.02212,-0.5985 -0.95175,-0.3927 -1.766,-0.9617 -2.45263,-1.6973 -0.71612,-0.7753 -1.26575,-1.6681 -1.64837,-2.6983 -0.39263,-1.0303 -0.5885,-2.1486 -0.5885,-3.3653 0,-1.2459 0.19587,-2.3744 0.5885,-3.4044 0.38262,-1.0305 0.93225,-1.9134 1.64837,-2.659 0.68663,-0.7948 1.50088,-1.4031 2.45263,-1.8053 0.94212,-0.4025 1.95275,-0.6083 3.02212,-0.6083 1.04,0 2.031,0.2058 2.98275,0.6083 0.94175,0.4022 1.77588,1.0105 2.492,1.8053 0.71613,0.7456 1.27563,1.6285 1.67775,2.659 0.40213,1.03 0.60838,2.1585 0.618,3.4044 -0.01,1.2167 -0.21587,2.335 -0.618,3.3653 -0.40212,1.0302 -0.96162,1.923 -1.67775,2.6983"
       style="fill:#000000;fill-opacity:1;fill-rule:nonzero;stroke:none"
       id="path3682"
       inkscape:connector-curvature="0" />
    <path
       d="m 323.74521,1012.5459 0,0 c 0.01,2.3156 0.37275,4.5231 1.08925,6.6033 0.726,2.0895 1.7365,4.0029 3.0415,5.7394 1.30475,1.7465 2.85525,3.2574 4.63075,4.533 1.776,1.2852 3.72862,2.2763 5.86737,2.9828 2.12925,0.7161 4.376,1.0792 6.7405,1.0987 l 0,0 c 2.54125,-0.019 4.93513,-0.422 7.19188,-1.2262 2.24675,-0.8048 4.30712,-1.9035 6.17137,-3.3066 l 0,0 c 0.17638,-0.157 0.29438,-0.3336 0.33338,-0.5298 0.0394,-0.1962 -0.01,-0.3727 -0.157,-0.5297 l 0,0 c -0.157,-0.1768 -0.33338,-0.265 -0.53963,-0.275 -0.20587,-0.019 -0.39225,0.039 -0.57862,0.157 l 0,0 0,0 c -1.71713,1.3343 -3.6305,2.3648 -5.72988,3.0808 -2.09975,0.7261 -4.32712,1.0893 -6.6915,1.0989 l 0,0 c -2.188,-0.01 -4.268,-0.3335 -6.24975,-0.9811 -1.97212,-0.6574 -3.78737,-1.5698 -5.43575,-2.7571 -1.65787,-1.1772 -3.0905,-2.5803 -4.30725,-4.1992 -1.21637,-1.609 -2.15825,-3.3949 -2.82537,-5.3277 -0.67713,-1.9424 -1.01063,-4.0029 -1.0205,-6.1615 l 0,0 c 0.01,-2.1388 0.34337,-4.1698 1.0205,-6.1027 0.66712,-1.9228 1.609,-3.6888 2.82537,-5.2982 1.21675,-1.609 2.64938,-3.00225 4.30725,-4.17975 1.64838,-1.187 3.46363,-2.09938 5.43575,-2.74713 1.98175,-0.64737 4.06175,-0.97112 6.24975,-0.98112 l 0,0 c 2.39388,0.01 4.64063,0.37275 6.75038,1.09913 2.09937,0.71612 4.01275,1.74612 5.72987,3.08062 l 0,0 c 0.15688,0.14737 0.33338,0.20612 0.53963,0.18637 0.20587,-0.0295 0.39225,-0.12762 0.57862,-0.304 l 0,0 c 0.118,-0.157 0.14738,-0.33387 0.0981,-0.52975 -0.039,-0.19637 -0.157,-0.37312 -0.33338,-0.53012 l 0,0 c -1.81525,-1.40275 -3.85587,-2.50188 -6.13212,-3.30625 -2.2765,-0.80463 -4.68038,-1.20688 -7.23113,-1.22638 l 0,0 c -2.3645,0.01 -4.61125,0.36288 -6.7405,1.06938 -2.13875,0.70625 -4.09137,1.69725 -5.86737,2.97287 -1.7755,1.28513 -3.326,2.7865 -4.63075,4.52303 -1.305,1.7366 -2.3155,3.65 -3.0415,5.72 -0.7165,2.0703 -1.07938,4.2583 -1.08925,6.554"
       style="fill:#000000;fill-opacity:1;fill-rule:nonzero;stroke:none"
       id="path3684"
       inkscape:connector-curvature="0" />
    <path
       d="m 363.54046,1032.7379 0,0 c 0,0.2157 0.0688,0.3925 0.20587,0.5396 0.1375,0.147 0.32388,0.2158 0.5595,0.2256 l 0,0 c 0.20588,-0.01 0.38263,-0.079 0.51025,-0.2256 0.1275,-0.1471 0.19625,-0.3239 0.19625,-0.5396 l 0,-39.67728 0,0 c 0,-0.21587 -0.0688,-0.39262 -0.19625,-0.53975 -0.12762,-0.147 -0.30437,-0.21575 -0.51025,-0.22562 l 0,0 c -0.23562,0.01 -0.422,0.0786 -0.5595,0.22562 -0.13712,0.14713 -0.20587,0.32388 -0.20587,0.53975 l 0,39.67728 z"
       style="fill:#000000;fill-opacity:1;fill-rule:nonzero;stroke:none"
       id="path3686"
       inkscape:connector-curvature="0" />
    <path
       d="m 371.89983,1021.8471 0,0 c 0.01,1.6289 0.31388,3.1497 0.91238,4.5524 0.5885,1.4033 1.41275,2.6395 2.4725,3.6992 1.0595,1.0694 2.27625,1.8936 3.6695,2.4921 1.39325,0.5985 2.88462,0.9025 4.48362,0.9123 l 0,0 c 1.619,-0.01 3.12,-0.3138 4.533,-0.9123 1.40313,-0.5985 2.63913,-1.4227 3.69888,-2.4921 1.06937,-1.0597 1.9035,-2.2959 2.50187,-3.6992 0.60838,-1.4027 0.9125,-2.9235 0.92238,-4.5524 l 0,-16.4242 0,0 c -0.01,-0.2159 -0.0786,-0.3923 -0.22575,-0.5398 -0.147,-0.147 -0.32388,-0.2157 -0.53963,-0.2256 l 0,0 c -0.18637,0.01 -0.35325,0.079 -0.51025,0.2256 -0.15687,0.1475 -0.24512,0.3239 -0.25512,0.5398 l 0,16.4242 0,0 c -0.01,1.4226 -0.27463,2.7471 -0.79475,3.9738 -0.51975,1.2263 -1.24575,2.3056 -2.16813,3.2376 -0.92237,0.9323 -2.00162,1.6583 -3.21837,2.1784 -1.22638,0.5197 -2.54088,0.7848 -3.94413,0.7944 l 0,0 c -1.39312,-0.01 -2.69812,-0.2747 -3.905,-0.7944 -1.21637,-0.5201 -2.28575,-1.2461 -3.20812,-2.1784 -0.91238,-0.932 -1.63838,-2.0112 -2.15863,-3.2376 -0.52012,-1.2267 -0.78475,-2.5512 -0.79475,-3.9738 l 0,-16.4242 0,0 c -0.01,-0.2159 -0.0783,-0.3923 -0.22562,-0.5398 -0.13713,-0.147 -0.29413,-0.2157 -0.48088,-0.2256 l 0,0 c -0.23525,0.01 -0.42162,0.079 -0.55912,0.2256 -0.1375,0.1475 -0.20588,0.3239 -0.20588,0.5398 l 0,16.4242 z"
       style="fill:#000000;fill-opacity:1;fill-rule:nonzero;stroke:none"
       id="path3688"
       inkscape:connector-curvature="0" />
    <path
       d="m 403.27646,1032.7379 c 0,0.2157 0.0688,0.3925 0.20625,0.5396 0.13712,0.147 0.3235,0.2158 0.55912,0.2256 0.18638,-0.01 0.34338,-0.079 0.48088,-0.2256 0.147,-0.1471 0.21575,-0.3239 0.22575,-0.5396 l 0,-7.1231 c 0.77487,1.5601 1.78537,2.9338 3.04112,4.1108 1.24625,1.1775 2.66888,2.0998 4.25838,2.767 1.59912,0.6573 3.30625,1.0007 5.1215,1.0105 1.95237,-0.01 3.7775,-0.3925 5.46487,-1.148 1.69763,-0.7455 3.179,-1.7855 4.45463,-3.11 1.27525,-1.3343 2.27625,-2.8651 2.99237,-4.6115 0.726,-1.7366 1.08913,-3.6107 1.09875,-5.612 -0.01,-1.9821 -0.37275,-3.8462 -1.09875,-5.5728 -0.71612,-1.7271 -1.71712,-3.2478 -2.99237,-4.5723 -1.27563,-1.3146 -2.757,-2.345 -4.45463,-3.0809 -1.68737,-0.7456 -3.5125,-1.1282 -5.46487,-1.1381 -1.81525,0.01 -3.52238,0.3532 -5.1215,1.0105 -1.5895,0.6672 -3.01213,1.5895 -4.25838,2.7865 -1.25575,1.1874 -2.26625,2.5706 -3.04112,4.1502 l 0,-19.42645 c -0.01,-0.21588 -0.0788,-0.41213 -0.22575,-0.5985 -0.1375,-0.1765 -0.2945,-0.27463 -0.48088,-0.2845 -0.23562,0.01 -0.422,0.108 -0.55912,0.2845 -0.1375,0.18637 -0.20625,0.38262 -0.20625,0.5985 l 0,25.25445 0,0.5889 0,0.7063 0,13.01 z m 1.472,-14.2463 c 0.0684,-1.7366 0.4415,-3.3456 1.10825,-4.837 0.67712,-1.4914 1.58,-2.806 2.71812,-3.9246 1.13813,-1.1281 2.44275,-2.0111 3.90475,-2.639 1.47188,-0.6283 3.03163,-0.9518 4.68988,-0.9616 1.73662,0.01 3.3555,0.3433 4.86637,1.0105 1.51125,0.6672 2.83575,1.5895 3.98338,2.767 1.148,1.1771 2.05087,2.5409 2.69825,4.0911 0.64775,1.5601 0.98112,3.2279 0.99112,5.0236 -0.01,1.8054 -0.34337,3.4926 -0.99112,5.0628 -0.64738,1.5696 -1.55025,2.9434 -2.69825,4.1404 -1.14763,1.187 -2.47213,2.1092 -3.98338,2.7863 -1.51087,0.6673 -3.12975,1.0106 -4.86637,1.0202 -1.70713,-0.01 -3.30625,-0.3529 -4.79763,-1.0202 -1.49137,-0.6771 -2.80625,-1.5993 -3.954,-2.7863 -1.13812,-1.197 -2.031,-2.5708 -2.67875,-4.1404 -0.64737,-1.5702 -0.98112,-3.2574 -0.99062,-5.0628 l 0,-0.53 z"
       style="fill:#000000;fill-opacity:1;fill-rule:nonzero;stroke:none"
       id="path3690"
       inkscape:connector-curvature="0" />
    <path
       d="m 465.20608,1032.7379 c 0.0294,0.059 0.0684,0.108 0.11763,0.1374 0.0489,0.039 0.0883,0.069 0.11762,0.098 0.14713,0.1764 0.314,0.304 0.49075,0.3923 0.18638,0.089 0.39225,0.1373 0.62788,0.1373 0.42162,-0.01 0.775,-0.147 1.04987,-0.422 0.27463,-0.2646 0.41213,-0.5984 0.42163,-0.9906 l 0,-37.9705 c -0.01,-0.39225 -0.147,-0.726 -0.42163,-0.99075 -0.27487,-0.27488 -0.62825,-0.412 -1.04987,-0.422 -0.39263,0.01 -0.726,0.14712 -0.991,0.422 -0.26513,0.26475 -0.41213,0.5985 -0.422,0.99075 l 0,33.5551 -24.96013,-34.61448 c -0.14712,-0.21587 -0.32387,-0.37275 -0.55912,-0.471 -0.22575,-0.0981 -0.471,-0.1375 -0.72613,-0.118 -0.25512,0.0199 -0.49075,0.0983 -0.71637,0.23563 -0.26475,0.20587 -0.4415,0.4515 -0.52975,0.72612 -0.0883,0.2745 -0.0883,0.569 0,0.8635 l 0,37.79363 c 0.01,0.3922 0.147,0.726 0.422,0.9906 0.26462,0.275 0.5985,0.4122 0.99075,0.422 0.3925,-0.01 0.726,-0.147 0.991,-0.422 0.27462,-0.2646 0.41212,-0.5984 0.422,-0.9906 l 0,-33.732 24.72487,34.3794 z"
       style="fill:#000000;fill-opacity:1;fill-rule:nonzero;stroke:none"
       id="path3692"
       inkscape:connector-curvature="0" />
    <path
       d="m 499.70271,1004.6575 c -0.39225,0.01 -0.72613,0.1375 -0.99075,0.3925 -0.265,0.2651 -0.41213,0.5985 -0.422,1.0205 l 0,4.2385 c -0.82425,-1.148 -1.80538,-2.139 -2.924,-2.9828 -1.11825,-0.8436 -2.34488,-1.5008 -3.68888,-1.9622 -1.33437,-0.461 -2.73762,-0.6966 -4.219,-0.7065 -1.91312,0.01 -3.689,0.3925 -5.33737,1.148 -1.64825,0.7459 -3.09075,1.7859 -4.33663,3.1004 -1.24612,1.3245 -2.21737,2.8552 -2.914,4.5917 -0.7065,1.7366 -1.05975,3.6008 -1.06937,5.5829 0.01,1.9817 0.36287,3.8459 1.06937,5.5825 0.69663,1.7365 1.66788,3.2672 2.914,4.5821 1.24588,1.3245 2.68838,2.3645 4.33663,3.11 1.64837,0.7555 3.42425,1.1382 5.33737,1.148 1.48138,-0.01 2.88463,-0.2451 4.219,-0.726 1.344,-0.4709 2.57063,-1.1281 3.68888,-1.9817 1.11862,-0.8536 2.09975,-1.8546 2.924,-3.0027 l 0,4.2978 c 0.01,0.3922 0.157,0.726 0.422,0.9906 0.26462,0.275 0.5985,0.4122 0.99075,0.422 0.3925,-0.01 0.726,-0.147 0.991,-0.422 0.27462,-0.2646 0.41212,-0.5984 0.422,-0.9906 l 0,-26.02 c -0.01,-0.422 -0.14738,-0.7554 -0.422,-1.0205 -0.265,-0.255 -0.5985,-0.3826 -0.991,-0.3925 z m -12.24463,26.0199 c -1.4815,-0.01 -2.87475,-0.3139 -4.17975,-0.9025 -1.295,-0.5889 -2.44312,-1.413 -3.44375,-2.4626 -1.00062,-1.0598 -1.77587,-2.2862 -2.34487,-3.6893 -0.56913,-1.4031 -0.85363,-2.914 -0.8635,-4.5425 0.01,-1.6289 0.29437,-3.1496 0.8635,-4.5525 0.569,-1.4031 1.34425,-2.6394 2.34487,-3.7088 1.00063,-1.0597 2.14875,-1.884 3.44375,-2.4823 1.305,-0.5985 2.69825,-0.9025 4.17975,-0.9125 1.50125,0.01 2.8945,0.314 4.19913,0.9125 1.305,0.5983 2.453,1.4226 3.44412,2.4823 1.00063,1.0694 1.7755,2.3057 2.335,3.7088 0.55913,1.4029 0.84363,2.9236 0.85363,4.5525 -0.01,1.6285 -0.2945,3.1394 -0.85363,4.5425 -0.5595,1.4031 -1.33437,2.6295 -2.335,3.6893 -0.99112,1.0496 -2.13912,1.8737 -3.44412,2.4626 -1.30463,0.5886 -2.69788,0.893 -4.19913,0.9025"
       style="fill:#000000;fill-opacity:1;fill-rule:nonzero;stroke:none"
       id="path3694"
       inkscape:connector-curvature="0" />
    <path
       d="m 516.71583,1004.6575 -3.70875,0 0,-10.71388 c -0.0199,-0.37287 -0.17687,-0.69662 -0.48087,-0.97125 -0.304,-0.2845 -0.64763,-0.43199 -1.04988,-0.44149 -0.36275,0.01 -0.68662,0.15699 -0.97125,0.44149 -0.2745,0.27463 -0.422,0.59838 -0.4415,0.97125 l 0,10.71388 -3.59112,0 c -0.461,0 -0.79475,0.079 -0.99063,0.2061 -0.20625,0.1375 -0.32387,0.314 -0.37312,0.5298 -0.039,0.2062 -0.0589,0.432 -0.0489,0.6771 -0.01,0.2352 0.01,0.461 0.0489,0.6767 0.0493,0.2163 0.16687,0.3927 0.37312,0.5302 0.19588,0.1276 0.52963,0.196 0.99063,0.2058 l 3.59112,0 0,21.0161 c 0.01,0.9712 0.23538,1.8248 0.67688,2.5806 0.43187,0.7455 1.03037,1.3341 1.79575,1.766 0.75537,0.4316 1.61887,0.6474 2.59012,0.6572 0.23525,-0.01 0.47088,-0.079 0.69663,-0.2058 0.22562,-0.1374 0.40212,-0.3143 0.54912,-0.5301 0.1475,-0.2158 0.21625,-0.4414 0.22575,-0.6767 -0.01,-0.2456 -0.0783,-0.471 -0.22575,-0.6966 -0.147,-0.2258 -0.3235,-0.4025 -0.54912,-0.5497 -0.22575,-0.1469 -0.46138,-0.2256 -0.69663,-0.2256 -0.24525,0 -0.53962,-0.078 -0.8635,-0.2353 -0.32387,-0.1569 -0.618,-0.3925 -0.8635,-0.7065 -0.24525,-0.3139 -0.38275,-0.7065 -0.39225,-1.1775 l 0,-21.0161 3.70875,0 c 0.36288,-0.019 0.68675,-0.1668 0.97125,-0.4415 0.27463,-0.2845 0.422,-0.6083 0.4415,-0.9712 -0.0195,-0.3727 -0.16687,-0.6966 -0.4415,-0.9715 -0.2845,-0.2846 -0.60837,-0.4316 -0.97125,-0.4415"
       style="fill:#000000;fill-opacity:1;fill-rule:nonzero;stroke:none"
       id="path3696"
       inkscape:connector-curvature="0" />
    <path
       d="m 547.32721,1004.6575 c -0.39225,0.01 -0.726,0.1375 -0.99075,0.3925 -0.265,0.2651 -0.41213,0.5985 -0.422,1.0205 l 0,4.2385 c -0.82413,-1.148 -1.80525,-2.139 -2.92388,-2.9828 -1.11837,-0.8436 -2.345,-1.5008 -3.689,-1.9622 -1.33437,-0.461 -2.7375,-0.6966 -4.219,-0.7065 -1.913,0.01 -3.689,0.3925 -5.33725,1.148 -1.64837,0.7459 -3.09087,1.7859 -4.33675,3.1004 -1.24612,1.3245 -2.21737,2.8552 -2.914,4.5917 -0.7065,1.7366 -1.05975,3.6008 -1.06937,5.5829 0.01,1.9817 0.36287,3.8459 1.06937,5.5825 0.69663,1.7365 1.66788,3.2672 2.914,4.5821 1.24588,1.3245 2.68838,2.3645 4.33675,3.11 1.64825,0.7555 3.42425,1.1382 5.33725,1.148 1.4815,-0.01 2.88463,-0.2451 4.219,-0.726 1.344,-0.4709 2.57063,-1.1281 3.689,-1.9817 1.11863,-0.8536 2.09975,-1.8546 2.92388,-3.0027 l 0,4.2978 c 0.01,0.3922 0.157,0.726 0.422,0.9906 0.26475,0.275 0.5985,0.4122 0.99075,0.422 0.39262,-0.01 0.726,-0.147 0.991,-0.422 0.27462,-0.2646 0.41212,-0.5984 0.422,-0.9906 l 0,-26.02 c -0.01,-0.422 -0.14738,-0.7554 -0.422,-1.0205 -0.265,-0.255 -0.59838,-0.3826 -0.991,-0.3925 z m -12.24463,26.0199 c -1.4815,-0.01 -2.87475,-0.3139 -4.17975,-0.9025 -1.295,-0.5889 -2.443,-1.413 -3.44362,-2.4626 -1.00063,-1.0598 -1.776,-2.2862 -2.345,-3.6893 -0.56913,-1.4031 -0.85363,-2.914 -0.8635,-4.5425 0.01,-1.6289 0.29437,-3.1496 0.8635,-4.5525 0.569,-1.4031 1.34437,-2.6394 2.345,-3.7088 1.00062,-1.0597 2.14862,-1.884 3.44362,-2.4823 1.305,-0.5985 2.69825,-0.9025 4.17975,-0.9125 1.50125,0.01 2.8945,0.314 4.19913,0.9125 1.305,0.5983 2.45312,1.4226 3.44412,2.4823 1.00063,1.0694 1.77563,2.3057 2.335,3.7088 0.55913,1.4029 0.84375,2.9236 0.85363,4.5525 -0.01,1.6285 -0.2945,3.1394 -0.85363,4.5425 -0.55937,1.4031 -1.33437,2.6295 -2.335,3.6893 -0.991,1.0496 -2.13912,1.8737 -3.44412,2.4626 -1.30463,0.5886 -2.69788,0.893 -4.19913,0.9025"
       style="fill:#000000;fill-opacity:1;fill-rule:nonzero;stroke:none"
       id="path3698"
       inkscape:connector-curvature="0" />
    <path
       d="m 568.46083,1033.5031 0,0 c 0,0 0,0 0,0 l 0,0 c 1.71713,-0.01 3.35563,-0.2845 4.90575,-0.8241 1.55025,-0.5396 2.94338,-1.2851 4.16025,-2.2369 l 0,0 c 0.35325,-0.275 0.55913,-0.6083 0.60838,-0.9811 0.0587,-0.3827 -0.0493,-0.7459 -0.314,-1.0794 l 0,0 c -0.2455,-0.2748 -0.5495,-0.4318 -0.90275,-0.4907 -0.36288,-0.059 -0.70625,0.029 -1.04,0.2551 l 0,0 0,0 c -1.04,0.8048 -2.188,1.4226 -3.44375,1.8641 -1.25575,0.4415 -2.58063,0.6578 -3.97388,0.6673 l 0,0 c -1.68725,-0.01 -3.25725,-0.3139 -4.70937,-0.9124 -1.452,-0.5985 -2.71775,-1.4226 -3.8165,-2.4821 -1.08925,-1.0698 -1.94275,-2.306 -2.55113,-3.7088 -0.60812,-1.4031 -0.922,-2.924 -0.93187,-4.5525 l 0,0 c 0.01,-1.5994 0.32375,-3.1004 0.93187,-4.4936 0.60838,-1.3931 1.46188,-2.6294 2.55113,-3.6893 1.09875,-1.0595 2.3645,-1.8935 3.8165,-2.5018 1.45212,-0.5985 3.02212,-0.9025 4.70937,-0.9125 l 0,0 c 1.39325,0 2.71813,0.2257 3.97388,0.6771 1.25575,0.4415 2.40375,1.079 3.44375,1.9131 l 0,0 c 0.33375,0.2256 0.67712,0.3139 1.04,0.2551 0.35325,-0.059 0.65725,-0.2158 0.90275,-0.4905 l 0,0 c 0.26475,-0.3436 0.37275,-0.6965 0.3335,-1.0597 -0.0394,-0.3728 -0.21588,-0.6673 -0.51025,-0.883 l 0,0 c -1.27525,-1.0105 -2.69825,-1.7858 -4.258,-2.345 -1.57,-0.5495 -3.2085,-0.8241 -4.92563,-0.834 l 0,0 c -2.07,0.01 -4.00287,0.3826 -5.79825,1.1186 -1.78575,0.7359 -3.3555,1.7564 -4.70975,3.061 -1.35387,1.305 -2.40375,2.8258 -3.16875,4.5624 -0.75575,1.7366 -1.148,3.6106 -1.158,5.6221 l 0,0 c 0.01,2.0406 0.40225,3.9441 1.158,5.6907 0.765,1.7465 1.81488,3.2867 3.16875,4.5917 1.35425,1.3146 2.924,2.345 4.70975,3.0805 1.79538,0.736 3.72825,1.1088 5.79825,1.1186"
       style="fill:#000000;fill-opacity:1;fill-rule:nonzero;stroke:none"
       id="path3700"
       inkscape:connector-curvature="0" />
    <path
       d="m 584.06096,1032.0905 0,0 c 0.01,0.3922 0.1475,0.726 0.422,0.9906 0.26475,0.275 0.5985,0.4122 0.99112,0.422 l 0,0 c 0.42163,-0.01 0.765,-0.147 1.04,-0.422 0.2745,-0.2646 0.42163,-0.5984 0.4315,-0.9906 l 0,-26.02 0,0 c -0.01,-0.422 -0.157,-0.7554 -0.4315,-1.0205 -0.275,-0.255 -0.61837,-0.3826 -1.04,-0.3925 l 0,0 c -0.39262,0.01 -0.72637,0.1375 -0.99112,0.3925 -0.2745,0.2651 -0.412,0.5985 -0.422,1.0205 l 0,26.02 z m 0,-34.08488 0,0 c 0.01,0.42163 0.1475,0.78488 0.422,1.06938 0.26475,0.29412 0.5985,0.45137 0.99112,0.461 l 0,0 c 0.42163,-0.01 0.765,-0.16688 1.04,-0.461 0.2745,-0.2845 0.42163,-0.64775 0.4315,-1.06938 l 0,-1.35425 0,0 c -0.01,-0.39225 -0.157,-0.726 -0.4315,-0.99075 -0.275,-0.27487 -0.61837,-0.412 -1.04,-0.422 l 0,0 c -0.39262,0.01 -0.72637,0.14713 -0.99112,0.422 -0.2745,0.26475 -0.412,0.5985 -0.422,0.99075 l 0,1.35425 z"
       style="fill:#000000;fill-opacity:1;fill-rule:nonzero;stroke:none"
       id="path3702"
       inkscape:connector-curvature="0" />
    <path
       d="m 593.18533,1019.0805 c 0.01,-1.9723 0.37275,-3.8264 1.07938,-5.5534 0.69662,-1.7366 1.67775,-3.2674 2.92387,-4.5919 1.24588,-1.3343 2.69788,-2.3743 4.34625,-3.1297 1.63875,-0.7455 3.41438,-1.1381 5.30825,-1.148 l 0,0 c 1.913,0.01 3.68888,0.4025 5.33725,1.148 1.64838,0.7554 3.10038,1.7954 4.33663,3.1297 1.24625,1.3245 2.21737,2.8553 2.914,4.5919 0.70662,1.727 1.0595,3.5811 1.06937,5.5534 l 0,0 c -0.01,1.9719 -0.36275,3.8264 -1.06937,5.5531 -0.69663,1.7365 -1.66775,3.2673 -2.914,4.5918 -1.23625,1.3343 -2.68825,2.3743 -4.33663,3.1202 -1.64837,0.7554 -3.42425,1.1477 -5.33725,1.1575 l 0,0 c -1.89387,-0.01 -3.6695,-0.4021 -5.30825,-1.1575 -1.64837,-0.7459 -3.10037,-1.7859 -4.34625,-3.1202 -1.24612,-1.3245 -2.22725,-2.8553 -2.92387,-4.5918 -0.70663,-1.7267 -1.06938,-3.5812 -1.07938,-5.5531 z m 2.82588,0 c 0.01,1.6189 0.29437,3.1199 0.8635,4.523 0.569,1.3933 1.34387,2.6196 2.34462,3.6794 1.00088,1.0595 2.149,1.8935 3.444,2.4821 1.30463,0.5985 2.69788,0.9029 4.17975,0.9124 l 0,0 c 1.48138,-0.01 2.87463,-0.3139 4.17963,-0.9124 1.29512,-0.5886 2.45275,-1.4226 3.44375,-2.4821 1.00062,-1.0598 1.77587,-2.2861 2.345,-3.6794 0.569,-1.4031 0.8535,-2.9041 0.86312,-4.523 l 0,0 c -0.01,-1.619 -0.29412,-3.1203 -0.86312,-4.533 -0.56913,-1.4031 -1.34438,-2.6394 -2.345,-3.6989 -0.991,-1.0694 -2.14863,-1.9034 -3.44375,-2.5019 -1.305,-0.6083 -2.69825,-0.9123 -4.17963,-0.9223 l 0,0 c -1.48187,0.01 -2.87512,0.314 -4.17975,0.9223 -1.295,0.5985 -2.44312,1.4325 -3.444,2.5019 -1.00075,1.0595 -1.77562,2.2958 -2.34462,3.6989 -0.56913,1.4127 -0.85363,2.914 -0.8635,4.533 z m 7.71162,-19.1325 c 0.37275,0.01 0.68663,-0.0392 0.96163,-0.13713 0.27462,-0.108 0.579,-0.31425 0.92237,-0.62812 l 4.70938,-4.53263 c 0.18637,-0.17687 0.33337,-0.35325 0.461,-0.53012 0.118,-0.17638 0.18637,-0.35325 0.18637,-0.52975 -0.01,-0.18638 -0.13712,-0.37275 -0.39225,-0.569 -0.25512,-0.19625 -0.56912,-0.37275 -0.94187,-0.51025 -0.373,-0.13713 -0.75575,-0.20588 -1.138,-0.21575 -0.34375,0 -0.64775,0.0883 -0.91288,0.265 -0.255,0.1765 -0.50025,0.4415 -0.7355,0.79475 l -3.65,5.47475 c -0.0588,0.0883 -0.11762,0.18637 -0.157,0.304 -0.0492,0.10812 -0.0786,0.22575 -0.0786,0.34337 0.01,0.14713 0.0786,0.27463 0.22575,0.37275 0.14737,0.0981 0.32387,0.15703 0.53962,0.15703 l 0,-0.0589 z"
       style="fill:#000000;fill-opacity:1;fill-rule:nonzero;stroke:none"
       id="path3704"
       inkscape:connector-curvature="0" />
    <path
       d="m 648.22746,1032.0905 c 0.01,0.4216 0.157,0.7554 0.422,1.0105 0.26475,0.2648 0.5985,0.3923 0.99075,0.4021 0.39262,-0.01 0.726,-0.1373 0.991,-0.4021 0.27462,-0.2551 0.41212,-0.5889 0.422,-1.0105 l 0,-15.6594 c -0.01,-1.6185 -0.31388,-3.1297 -0.92225,-4.5425 -0.5985,-1.4031 -1.43263,-2.649 -2.502,-3.7186 -1.06938,-1.079 -2.3155,-1.923 -3.72825,-2.5215 -1.413,-0.6084 -2.93388,-0.9223 -4.56238,-0.9319 -1.81525,0.019 -3.483,0.3923 -5.02337,1.1381 -1.54063,0.7455 -2.84525,1.756 -3.9245,3.0413 l 0,-2.7666 c -0.01,-0.3926 -0.1375,-0.726 -0.39263,-0.9912 -0.24512,-0.2746 -0.569,-0.412 -0.96162,-0.4216 -0.42163,0.01 -0.7555,0.147 -1.0105,0.4216 -0.26475,0.2652 -0.39225,0.5986 -0.40225,0.9912 l 0,9.8308 0,0.4709 0,15.6594 0,0.3529 c 0,0 0.01,0.01 0.0294,0.039 0.0195,0.02 0.0295,0.049 0.0295,0.079 0,0.029 0,0.059 0.01,0.088 0,0.029 0.0195,0.059 0.0489,0.088 0.0886,0.1767 0.21587,0.3337 0.38275,0.4709 0.16687,0.1375 0.35325,0.2356 0.5595,0.2943 l 0.35287,0 c 0.20625,0 0.41213,-0.049 0.5985,-0.1373 0.18675,-0.088 0.34363,-0.2159 0.46125,-0.3923 0.0883,-0.088 0.14713,-0.1864 0.18638,-0.3044 0.049,-0.1077 0.0788,-0.2257 0.10812,-0.3433 l 0,-0.2353 0,-15.6594 c 0.039,-1.2262 0.29413,-2.3839 0.765,-3.4532 0.46138,-1.0698 1.10875,-2.0115 1.92325,-2.8258 0.81425,-0.8142 1.74625,-1.4521 2.81588,-1.9135 1.06937,-0.451 2.2175,-0.6866 3.44375,-0.6965 1.24625,0.01 2.40375,0.2455 3.47312,0.6965 1.07938,0.4614 2.02113,1.0993 2.82588,1.9135 0.81425,0.8143 1.44212,1.756 1.8935,2.8258 0.461,1.0693 0.68675,2.227 0.69662,3.4532 l 0,15.6594 z"
       style="fill:#000000;fill-opacity:1;fill-rule:nonzero;stroke:none"
       id="path3706"
       inkscape:connector-curvature="0" />
    <path
       d="m 478.81633,667.577 -1.33487,-4.9805 c -3.45325,-12.88838 1.264,-21.05963 14.14987,-24.51188 l 3.0905,-0.82775 c -0.55275,2.58026 -1.27175,5.1545 -2.165,7.70988 -3.04112,8.70175 -7.79175,16.31837 -13.7405,22.61025"
       style="fill:#ffb300;fill-opacity:0.9;fill-rule:evenodd;stroke:none"
       id="path3708"
       inkscape:connector-curvature="0" />
    <path
       d="m 450.47196,684.89875 -0.60063,-1.03988 c -6.67275,-11.5555 -4.23037,-20.66962 7.32613,-27.33987 l 38.03887,-21.9635 c -0.58925,3.48337 -1.47437,6.96437 -2.6795,10.41125 -7.01637,20.07362 -23.11787,34.38287 -42.08487,39.932"
       style="fill:#ffb300;fill-opacity:0.8;fill-rule:evenodd;stroke:none"
       id="path3710"
       inkscape:connector-curvature="0" />
    <path
       d="m 421.46533,686.4295 c 1.01525,-3.2375 3.14188,-6.475 6.37975,-9.7125 l 66.69038,-66.69213 c 2.56,11.22263 2.099,23.27663 -1.97863,34.94188 -10.43075,29.84112 -40.94,46.945 -71.0915,41.46275"
       style="fill:#ffb300;fill-opacity:0.7;fill-rule:evenodd;stroke:none"
       id="path3712"
       inkscape:connector-curvature="0" />
    <path
       d="m 411.64296,683.81875 43.92112,-76.07188 c 6.67063,-11.553 15.7825,-13.9975 27.33838,-7.32437 l 10.76412,6.21425 c 3.48813,12.161 3.38138,25.48125 -1.10975,38.33 -11.54725,33.03575 -47.70175,50.46387 -80.737,38.91612 l -0.17687,-0.0641 z"
       style="fill:#ffb300;fill-opacity:0.6;fill-rule:evenodd;stroke:none"
       id="path3714"
       inkscape:connector-curvature="0" />
    <path
       d="m 396.15771,675.83112 15.76837,-58.8465 c 3.45438,-12.88849 11.626,-17.60637 24.51363,-14.15375 l 59.45675,15.931 c 0.72737,8.61488 -0.303,17.51713 -3.33963,26.20488 -11.54725,33.03575 -47.70175,50.46387 -80.737,38.91613 -5.7105,-1.99626 -10.95387,-4.72851 -15.66212,-8.05175"
       style="fill:#ffb300;fill-opacity:0.5;fill-rule:evenodd;stroke:none"
       id="path3716"
       inkscape:connector-curvature="0" />
    <path
       d="m 371.30983,639.66462 0,-8.99012 c 3.8e-4,-13.34263 6.67,-20.01362 20.01438,-20.01438 l 79.38675,0.001 c 13.34162,6.2e-4 20.01337,6.67125 20.01225,20.014 l 0,18.94562 c -13.18363,29.98988 -47.45625,45.2545 -78.90338,34.262 -20.82087,-7.27787 -35.43625,-24.3325 -40.51,-44.21825"
       style="fill:#ffb300;fill-opacity:0.5;fill-rule:evenodd;stroke:none"
       id="path3718"
       inkscape:connector-curvature="0" />
  </g>
</svg>
